<?xml version="1.0" encoding="iso-8859-1"?>
<!-- Generator: Adobe Illustrator 17.0.0, SVG Export Plug-In . SVG Version: 6.00 Build 0)  -->
<!DOCTYPE svg PUBLIC "-//W3C//DTD SVG 1.1//EN" "http://www.w3.org/Graphics/SVG/1.1/DTD/svg11.dtd">
<svg version="1.1" id="Calque_1" xmlns="http://www.w3.org/2000/svg" xmlns:xlink="http://www.w3.org/1999/xlink" x="0px" y="0px"
	 width="5054.021px" height="1608.643px" viewBox="0 0 5054.021 1608.643" style="enable-background:new 0 0 5054.021 1608.643;"
	 xml:space="preserve">
<g>
	<rect x="210.551" y="1296.193" style="fill:#808184;" width="28.699" height="193.521"/>
	<polygon style="fill:#808184;" points="726.024,1456.605 649.317,1296.181 608.852,1296.181 608.852,1489.714 637.551,1489.714 
		637.551,1332.474 638.188,1332.474 713.231,1489.714 738.715,1489.714 814.078,1329.193 814.625,1329.193 814.625,1489.714 
		843.25,1489.714 843.25,1296.181 803.496,1296.181 	"/>
	<polygon style="fill:#808184;" points="1327.582,1456.605 1250.891,1296.181 1210.488,1296.181 1210.488,1489.714 
		1239.285,1489.714 1239.285,1332.474 1239.832,1332.474 1314.813,1489.714 1340.313,1489.714 1415.656,1329.193 1416.203,1329.193 
		1416.203,1489.714 1444.899,1489.714 1444.899,1296.181 1405.145,1296.181 	"/>
	<path style="fill:#808184;" d="M1909.254,1291.29c-77.785,0-107.602,52.012-107.602,101.644
		c0,49.645,29.816,101.633,107.602,101.633c77.711,0,107.602-51.988,107.602-101.633
		C2016.856,1343.302,1986.965,1291.29,1909.254,1291.29 M1909.254,1469.632c-44.238,0-78.914-25.479-78.914-76.697
		c0-51.195,34.676-76.697,78.914-76.697c44.148,0,78.813,25.502,78.813,76.697
		C1988.067,1444.154,1953.402,1469.632,1909.254,1469.632"/>
	<path style="fill:#808184;" d="M2512.546,1386.12v-0.541c15.688-5.646,28.231-17.34,28.231-40.848
		c0-30.367-18.496-48.551-59.754-48.551h-107.492v193.533h114.324c42.031,0,61.238-28.158,61.238-55.906
		C2549.093,1405.95,2534.742,1391.312,2512.546,1386.12 M2402.133,1321.032h76.781c23.605,0,33.008,10.348,33.008,28.002
		c0,15.443-10.262,27.053-31.36,27.053h-78.429V1321.032z M2480.016,1464.765h-77.883v-63.658h80.219
		c29.348,0,37.965,15.695,37.965,30.814C2520.317,1448.456,2511.922,1464.765,2480.016,1464.765"/>
	<rect x="2912.277" y="1296.181" style="fill:#808184;" width="28.699" height="193.533"/>
	<polygon style="fill:#808184;" points="3340.371,1296.181 3311.578,1296.181 3311.578,1489.714 3458,1489.714 3458,1464.765 
		3340.371,1464.765 	"/>
	<rect x="3809.109" y="1296.181" style="fill:#808184;" width="28.77" height="193.533"/>
	<polygon style="fill:#808184;" points="4236.179,1402.105 4359.289,1402.105 4359.289,1377.167 4236.179,1377.167 
		4236.179,1321.032 4363.074,1321.032 4363.074,1296.181 4207.484,1296.181 4207.484,1489.714 4365.804,1489.714 4365.804,1464.765 
		4236.179,1464.765 	"/>
	<path style="fill:#808184;" d="M4893.054,1437.101c-1.023-22.75-10.984-38.77-28.184-41.186v-0.553
		c21.176-6.803,32.594-24.143,32.594-47.758c0-24.588-14.047-51.424-52.816-51.424h-119.914v193.533h28.793v-82.178h75.051
		c23.93,0,35.621,10.576,37.426,45.258c1.32,23.352,1.32,31.428,5.961,36.92h30.332
		C4895.792,1482.107,4894.796,1473.081,4893.054,1437.101 M4833.781,1382.671h-80.254v-61.639h81.023
		c23.137,0,34.109,12.535,34.109,30.971C4868.66,1365.546,4861.941,1382.671,4833.781,1382.671"/>
	<polygon style="fill-rule:evenodd;clip-rule:evenodd;fill:#808184;" points="3023.863,941.155 3325.937,745.495 3433.605,955.251 
		3110.425,1007.734 	"/>
	<polygon style="fill:#A6A8AB;" points="2986.21,1060.046 3547.878,1060.046 3157.257,170.653 2806.703,1060.107 2929.535,1059.806 
		3164.058,470.145 3370.691,942.165 3023.539,942.165 	"/>
	<polygon style="fill:#808184;" points="3157.488,170.653 3255.66,170.653 3616.164,995.103 3546.859,1058.64 	"/>
	<polygon style="fill:#F98A34;" points="1831.922,1072.736 1957.336,1072.736 1957.336,292.981 2171.887,292.981 2171.887,170.725 
		1617.445,170.725 1617.445,292.981 1831.922,292.981 	"/>
	<polygon style="fill:#F98A34;" points="3919.597,345.548 4444.386,1072.736 4497.167,1072.736 4539.613,1072.736 
		4592.382,1072.736 4592.382,170.725 4466.824,170.725 4466.824,906.495 3935.882,170.725 3883.269,170.725 3846.878,170.725 
		3794.05,170.725 3794.05,1072.736 3919.597,1072.736 	"/>
	<polygon style="fill:#F98A34;" points="2486.367,1072.736 2611.824,1072.736 2611.824,292.981 2826.328,292.981 2826.328,170.725 
		2271.875,170.725 2271.875,292.981 2486.367,292.981 	"/>
	<polygon style="fill:#F98A34;" points="969.035,1072.736 1528.348,1072.736 1528.348,950.493 1094.524,950.493 1094.524,663.221 
		1528.348,663.221 1528.348,541.038 1094.524,541.038 1094.524,292.981 1528.348,292.981 1528.348,170.725 969.192,170.725 
		968.969,170.569 969.035,950.493 968.969,950.493 	"/>
	<rect x="4749.707" y="170.725" style="fill:#F98A34;" width="125.465" height="902.01"/>
	<polygon style="fill:#F98A34;" points="355.621,706.028 724.438,1072.736 896.656,1072.736 429.277,606.606 872.188,170.725 
		698.18,170.725 355.621,507.557 355.621,170.725 230.231,170.725 230.231,1072.736 355.621,1072.736 	"/>
</g>
<g>
</g>
<g>
</g>
<g>
</g>
<g>
</g>
<g>
</g>
</svg>
